<svg width="286" height="258" viewBox="0 0 286 258" fill="none" xmlns="http://www.w3.org/2000/svg">
<path d="M255.596 53.4229C266.867 148.284 157.422 240.311 72.7423 172.172C34.5116 141.411 7.08527 43.0478 71.7751 28.6411C108.874 20.3851 148.751 53.4091 184.114 40.4128C201.114 34.1726 209.819 9.61793 229.576 12.2048C248.125 14.6747 253.716 37.6126 255.596 53.4229Z" fill="#94A3FF"/>
<path opacity="0.9" d="M255.596 53.4229C266.867 148.284 157.422 240.311 72.7423 172.172C34.5116 141.411 7.08527 43.0478 71.7751 28.6411C108.874 20.3851 148.751 53.4091 184.114 40.4128C201.114 34.1726 209.819 9.61793 229.576 12.2048C248.125 14.6747 253.716 37.6126 255.596 53.4229Z" fill="white"/>
<path d="M141.5 248.161C68.0417 248.161 8.4917 244.674 8.4917 240.373C8.4917 236.072 68.0417 232.585 141.5 232.585C214.959 232.585 274.509 236.072 274.509 240.373C274.509 244.674 214.959 248.161 141.5 248.161Z" fill="#F5F5F5"/>
<path d="M223.573 87.6509C224.177 89.0269 224.842 90.513 225.425 91.9647C226.009 93.4164 226.612 94.9093 227.14 96.3954C228.224 99.2924 229.093 102.266 229.74 105.291L229.939 106.392L230.008 106.805C230.008 106.922 230.008 107.073 230.049 107.211C230.075 107.881 230.061 108.551 230.008 109.22C229.878 110.671 229.644 112.226 229.322 113.781C228.746 116.898 228.012 120.111 227.264 123.276L230.783 124.652C232.424 121.652 233.821 118.526 234.961 115.302C235.562 113.624 236.047 111.907 236.415 110.162C236.621 109.197 236.75 108.217 236.799 107.231C236.799 106.956 236.799 106.695 236.799 106.399C236.799 106.103 236.799 105.773 236.751 105.58L236.614 104.204C236.409 102.432 236.095 100.674 235.674 98.941C235.29 97.221 234.796 95.5491 234.302 93.8979C233.808 92.2467 233.191 90.6231 232.539 89.0269C232.217 88.2288 231.853 87.4376 231.538 86.6464C231.222 85.8552 230.852 85.0984 230.413 84.2522L223.573 87.6509Z" fill="#E4897B"/>
<path d="M227.449 122.347L224.774 124.968L230.611 127.72C230.611 127.72 232.025 125.236 231.044 122.993L227.449 122.347Z" fill="#E4897B"/>
<path d="M222.613 128.869L227.545 130.891L230.604 127.692L224.773 124.968L222.613 128.869Z" fill="#E4897B"/>
<path opacity="0.4" d="M122.697 126.048C132.403 124.955 141.568 121 149.034 114.684C156.499 108.368 161.93 99.9734 164.639 90.5621C167.349 81.1508 167.215 71.1451 164.255 61.81C161.295 52.4749 155.642 44.2295 148.01 38.1161C140.379 32.0028 131.111 28.296 121.379 27.4643C111.647 26.6326 101.888 28.7134 93.3347 33.4437C84.7817 38.174 77.8192 45.3413 73.3271 54.0396C68.8351 62.7379 67.0154 72.5766 68.098 82.312C68.8173 88.7801 70.8004 95.0427 73.934 100.742C77.0676 106.441 81.2904 111.465 86.3609 115.527C91.4314 119.588 97.2502 122.608 103.485 124.414C109.72 126.219 116.248 126.774 122.697 126.048Z" fill="#FAFAFA"/>
<path opacity="0.4" d="M86.7642 37.7914L161.881 97.9845C162.197 97.2965 162.505 96.6085 162.794 95.9205C164.677 91.4281 165.881 86.6791 166.368 81.8303L101.486 29.8381C96.159 31.6202 91.1787 34.3107 86.7642 37.7914Z" fill="#FAFAFA"/>
<path opacity="0.4" d="M69.429 64.1625L140.053 120.751C146.762 117.243 152.576 112.233 157.045 106.11L79.9317 44.3137C74.961 50.0358 71.3676 56.8267 69.429 64.1625Z" fill="#FAFAFA"/>
<path d="M172.789 57.8879L173.44 57.6677C172.312 54.3275 170.893 51.093 169.201 48.0013L168.604 48.3316C170.274 51.3886 171.674 54.5862 172.789 57.8879ZM164.461 41.83L165.016 41.424C159.379 33.7789 152 27.5962 143.497 23.3916L143.188 24.0108C151.595 28.172 158.889 34.2886 164.461 41.8506V41.83ZM89.282 24.9533C91.5237 23.7474 93.8429 22.6925 96.2243 21.7954L95.9773 21.1487C93.5725 22.0668 91.2305 23.1424 88.9664 24.3685L89.282 24.9533Z" fill="#94A3FF"/>
<path opacity="0.3" d="M172.789 57.8879L173.44 57.6677C172.312 54.3275 170.893 51.093 169.201 48.0013L168.604 48.3316C170.274 51.3886 171.674 54.5862 172.789 57.8879ZM164.461 41.83L165.016 41.424C159.379 33.7789 152 27.5962 143.497 23.3916L143.188 24.0108C151.595 28.172 158.889 34.2886 164.461 41.8506V41.83ZM89.282 24.9533C91.5237 23.7474 93.8429 22.6925 96.2243 21.7954L95.9773 21.1487C93.5725 22.0668 91.2305 23.1424 88.9664 24.3685L89.282 24.9533Z" fill="black"/>
<path d="M66.1293 51.517C72.4814 38.3042 83.6597 28.0496 97.3468 22.8791C111.034 17.7086 126.18 18.0187 139.645 23.7452C153.11 29.4717 163.862 40.1753 169.671 53.6371C175.48 67.0989 175.901 82.2865 170.847 96.0513C175.43 97.6612 179.957 99.3881 184.457 101.17C190.947 103.752 197.377 106.449 203.748 109.261C210.114 112.089 216.452 114.971 222.729 117.985C225.878 119.464 228.986 121.026 232.121 122.539C233.752 123.242 235.229 124.259 236.47 125.532C237.141 126.237 237.733 127.015 238.233 127.851C238.843 128.839 239.306 129.913 239.605 131.036C240.121 133.061 239.898 135.204 238.976 137.078C238.053 138.951 236.493 140.433 234.577 141.253C233.512 141.701 232.39 141.992 231.243 142.12C230.274 142.23 229.296 142.23 228.327 142.12C226.567 141.905 224.865 141.347 223.319 140.475C220.212 138.9 217.084 137.379 213.997 135.763C207.823 132.605 201.649 129.309 195.55 125.966C189.451 122.622 183.346 119.12 177.392 115.529C173.276 113.031 169.118 110.479 165.044 107.809C157.219 120.198 144.942 129.092 130.756 132.65C116.571 136.207 101.564 134.155 88.8464 126.918C76.1285 119.682 66.6742 107.815 62.4424 93.7778C58.2106 79.7404 59.5258 64.6083 66.1155 51.517H66.1293ZM97.3148 117.242C105.287 121.188 114.247 122.675 123.062 121.515C131.877 120.355 140.151 116.599 146.838 110.723C153.524 104.847 158.324 97.1139 160.629 88.5023C162.933 79.8907 162.641 70.7871 159.787 62.3424C156.933 53.8978 151.647 46.4914 144.596 41.0598C137.546 35.6282 129.048 32.4153 120.176 31.8273C111.305 31.2393 102.459 33.3026 94.7575 37.7564C87.0555 42.2103 80.8433 48.8545 76.9063 56.849C74.2917 62.1583 72.7456 67.9321 72.3563 73.8407C71.9669 79.7493 72.742 85.677 74.6371 91.2851C76.5323 96.8933 79.5105 102.072 83.4016 106.526C87.2926 110.979 92.0204 114.621 97.3148 117.242Z" fill="#94A3FF"/>
<path opacity="0.3" d="M66.1293 51.517C72.4814 38.3042 83.6597 28.0496 97.3468 22.8791C111.034 17.7086 126.18 18.0187 139.645 23.7452C153.11 29.4717 163.862 40.1753 169.671 53.6371C175.48 67.0989 175.901 82.2865 170.847 96.0513C175.43 97.6612 179.957 99.3881 184.457 101.17C190.947 103.752 197.377 106.449 203.748 109.261C210.114 112.089 216.452 114.971 222.729 117.985C225.878 119.464 228.986 121.026 232.121 122.539C233.752 123.242 235.229 124.259 236.47 125.532C237.141 126.237 237.733 127.015 238.233 127.851C238.843 128.839 239.306 129.913 239.605 131.036C240.121 133.061 239.898 135.204 238.976 137.078C238.053 138.951 236.493 140.433 234.577 141.253C233.512 141.701 232.39 141.992 231.243 142.12C230.274 142.23 229.296 142.23 228.327 142.12C226.567 141.905 224.865 141.347 223.319 140.475C220.212 138.9 217.084 137.379 213.997 135.763C207.823 132.605 201.649 129.309 195.55 125.966C189.451 122.622 183.346 119.12 177.392 115.529C173.276 113.031 169.118 110.479 165.044 107.809C157.219 120.198 144.942 129.092 130.756 132.65C116.571 136.207 101.564 134.155 88.8464 126.918C76.1285 119.682 66.6742 107.815 62.4424 93.7778C58.2106 79.7404 59.5258 64.6083 66.1155 51.517H66.1293ZM97.3148 117.242C105.287 121.188 114.247 122.675 123.062 121.515C131.877 120.355 140.151 116.599 146.838 110.723C153.524 104.847 158.324 97.1139 160.629 88.5023C162.933 79.8907 162.641 70.7871 159.787 62.3424C156.933 53.8978 151.647 46.4914 144.596 41.0598C137.546 35.6282 129.048 32.4153 120.176 31.8273C111.305 31.2393 102.459 33.3026 94.7575 37.7564C87.0555 42.2103 80.8433 48.8545 76.9063 56.849C74.2917 62.1583 72.7456 67.9321 72.3563 73.8407C71.9669 79.7493 72.742 85.677 74.6371 91.2851C76.5323 96.8933 79.5105 102.072 83.4016 106.526C87.2926 110.979 92.0204 114.621 97.3148 117.242Z" fill="black"/>
<path d="M204.612 63.0824C204.612 63.4883 204.4 63.8185 204.132 63.8185C203.865 63.8185 203.652 63.4883 203.652 63.0824C203.652 62.6764 203.865 62.3462 204.132 62.3462C204.4 62.3462 204.612 62.704 204.612 63.0824Z" fill="#263238"/>
<path d="M204.42 63.8184C203.934 65.0644 203.281 66.238 202.479 67.3065C202.756 67.5056 203.074 67.6414 203.409 67.7044C203.744 67.7674 204.089 67.7561 204.42 67.6712V63.8184Z" fill="#DE5753"/>
<path d="M206.032 60.8188C206.07 60.8188 206.108 60.8101 206.142 60.7935C206.177 60.7768 206.207 60.7525 206.231 60.7224C206.267 60.6699 206.281 60.6056 206.271 60.5429C206.26 60.4801 206.227 60.4237 206.176 60.3853C205.874 60.1555 205.521 60.0024 205.147 59.9389C204.773 59.8754 204.39 59.9035 204.029 60.0207C203.996 60.0295 203.966 60.0451 203.94 60.0664C203.914 60.0877 203.893 60.1142 203.878 60.1442C203.863 60.1743 203.854 60.2072 203.852 60.2408C203.85 60.2744 203.856 60.308 203.868 60.3395C203.88 60.3709 203.898 60.3994 203.922 60.4233C203.946 60.4471 203.974 60.4656 204.006 60.4777C204.037 60.4898 204.071 60.4952 204.104 60.4935C204.138 60.4918 204.17 60.4831 204.2 60.4679C204.487 60.3798 204.79 60.3619 205.085 60.4157C205.38 60.4696 205.658 60.5937 205.895 60.7775C205.935 60.8045 205.983 60.8189 206.032 60.8188Z" fill="#263238"/>
<path d="M218.469 66.1438C217.783 69.8384 217.029 76.6152 219.608 79.0851C219.608 79.0851 218.599 82.8347 211.746 82.8347C204.2 82.8347 208.152 79.0851 208.152 79.0851C212.268 78.0944 212.151 75.0396 211.438 72.1638L218.469 66.1438Z" fill="#E4897B"/>
<path d="M222.688 81.0322C221.872 79.7594 223.244 76.6703 223.244 76.6703C223.244 76.6703 211.115 73.6087 206.155 78.3077C205.126 79.2778 206.265 80.7088 206.265 80.7088L222.688 81.0322Z" fill="#94A3FF"/>
<path opacity="0.1" d="M222.688 81.0322C221.872 79.7594 223.244 76.6703 223.244 76.6703C223.244 76.6703 211.115 73.6087 206.155 78.3077C205.126 79.2778 206.265 80.7088 206.265 80.7088L222.688 81.0322Z" fill="black"/>
<path d="M242.753 221.405C243.391 221.405 244.414 220.339 244.715 219.939C244.728 219.92 244.735 219.897 244.735 219.874C244.735 219.851 244.728 219.828 244.715 219.809C244.704 219.79 244.688 219.774 244.669 219.763C244.65 219.752 244.628 219.746 244.606 219.747C244.53 219.747 242.85 219.898 242.39 220.497C242.34 220.56 242.304 220.633 242.285 220.712C242.266 220.79 242.265 220.872 242.28 220.951C242.286 221.053 242.324 221.151 242.388 221.231C242.451 221.311 242.539 221.37 242.637 221.398L242.753 221.405ZM244.345 220.029C243.844 220.607 243.042 221.26 242.699 221.178C242.699 221.178 242.561 221.143 242.52 220.923C242.511 220.877 242.513 220.83 242.525 220.785C242.536 220.739 242.558 220.697 242.589 220.662C243.097 220.276 243.708 220.051 244.345 220.015V220.029Z" fill="#94A3FF"/>
<path d="M244.27 220.015C244.393 220.028 244.517 220.028 244.64 220.015C244.662 220.013 244.683 220.005 244.7 219.992C244.717 219.978 244.73 219.96 244.736 219.939C244.746 219.92 244.751 219.899 244.751 219.877C244.751 219.856 244.746 219.835 244.736 219.816C244.688 219.774 243.68 218.722 242.918 218.722C242.827 218.72 242.737 218.737 242.653 218.772C242.569 218.808 242.493 218.861 242.431 218.928C242.363 218.985 242.316 219.064 242.299 219.152C242.281 219.239 242.294 219.33 242.335 219.41C242.534 219.795 243.584 220.015 244.27 220.015ZM244.359 219.774C243.673 219.774 242.678 219.561 242.514 219.258C242.514 219.258 242.466 219.169 242.575 219.059C242.615 219.015 242.664 218.981 242.719 218.958C242.773 218.936 242.832 218.925 242.891 218.928C243.453 219.057 243.964 219.352 244.359 219.774Z" fill="#94A3FF"/>
<path d="M197.484 237.022C198.004 237.019 198.523 236.971 199.035 236.878C199.06 236.873 199.083 236.859 199.099 236.839C199.116 236.819 199.124 236.794 199.124 236.768C199.128 236.744 199.125 236.72 199.115 236.698C199.105 236.676 199.089 236.657 199.069 236.644C198.994 236.603 197.237 235.591 196.394 235.825C196.315 235.843 196.242 235.877 196.177 235.924C196.112 235.971 196.057 236.031 196.016 236.101C195.963 236.177 195.934 236.268 195.934 236.362C195.934 236.456 195.963 236.547 196.016 236.623C196.215 236.933 196.84 237.022 197.484 237.022ZM198.644 236.699C197.711 236.837 196.435 236.83 196.202 236.5C196.167 236.458 196.14 236.383 196.202 236.238C196.254 236.153 196.338 236.091 196.435 236.066C196.97 235.929 198.033 236.383 198.644 236.699Z" fill="#94A3FF"/>
<path d="M199.008 236.885C199.03 236.891 199.054 236.891 199.076 236.885C199.095 236.873 199.11 236.855 199.119 236.834C199.127 236.813 199.129 236.79 199.124 236.768C199.078 236.052 198.804 235.369 198.342 234.821C198.249 234.74 198.139 234.681 198.021 234.646C197.903 234.612 197.778 234.603 197.656 234.621C197.327 234.621 197.231 234.821 197.21 234.952C197.121 235.523 198.322 236.617 198.932 236.892L199.008 236.885ZM197.78 234.821C197.931 234.82 198.077 234.874 198.191 234.972C198.579 235.407 198.819 235.954 198.877 236.534C198.26 236.156 197.437 235.302 197.505 234.958C197.505 234.958 197.505 234.842 197.739 234.821H197.78Z" fill="#94A3FF"/>
<path d="M204.55 236.761H199.508L199.007 225.058H204.05L204.55 236.761Z" fill="#E4897B"/>
<path d="M249.449 216.671L245.237 219.437L235.935 211.56L240.154 208.787L249.449 216.671Z" fill="#E4897B"/>
<path d="M244.544 219.176L248.921 215.578C248.998 215.514 249.095 215.479 249.195 215.479C249.295 215.479 249.392 215.514 249.47 215.578L253.078 218.419C253.165 218.489 253.236 218.577 253.284 218.678C253.332 218.778 253.357 218.889 253.357 219C253.357 219.112 253.332 219.222 253.284 219.323C253.236 219.424 253.165 219.512 253.078 219.582C251.528 220.813 250.711 221.336 248.784 222.919C247.597 223.889 244.668 226.861 243.014 228.202C241.361 229.544 239.845 228.099 240.394 227.404C242.857 224.274 243.824 221.598 244.105 219.939C244.154 219.64 244.31 219.368 244.544 219.176Z" fill="#263238"/>
<path d="M199.542 236.176H205.03C205.131 236.177 205.228 236.211 205.306 236.273C205.384 236.336 205.44 236.423 205.463 236.52L206.457 241.013C206.482 241.122 206.482 241.235 206.457 241.344C206.432 241.453 206.383 241.554 206.313 241.641C206.243 241.728 206.154 241.798 206.053 241.845C205.952 241.892 205.842 241.916 205.73 241.914C203.748 241.88 200.88 241.763 198.383 241.763C195.468 241.763 192.943 241.921 189.527 241.921C187.469 241.921 186.879 239.823 187.75 239.637C191.688 238.77 194.912 238.681 198.315 236.568C198.68 236.326 199.105 236.19 199.542 236.176Z" fill="#263238"/>
<path d="M229.541 80.592C233.911 82.656 236.401 96.4848 236.401 96.4848L225.72 100.757C224.157 96.9286 222.893 92.9836 221.94 88.9581C220.472 82.5872 225.069 78.4592 229.541 80.592Z" fill="#263238"/>
<path d="M223.875 88.387C226.516 91.0702 227.723 96.3265 228.251 99.7458L225.693 100.771C224.174 97.0509 222.935 93.2218 221.988 89.3158C222.215 87.8572 222.777 87.2724 223.875 88.387Z" fill="#203048"/>
<path d="M200.4 80.4955C200.4 80.4955 195.035 86.5774 200.098 124.184H227.051C227.236 120.056 224.636 99.7939 228.629 80.241C225.65 79.6617 222.637 79.2802 219.608 79.0989C215.793 78.8717 211.967 78.8717 208.152 79.0989C205.536 79.3629 202.944 79.8299 200.4 80.4955Z" fill="#263238"/>
<path d="M197.937 95.095L202.479 87.2449C203.355 90.9076 203.713 94.6758 203.542 98.4386C203.418 101.136 200.956 111.125 198.74 112.584C198.152 106.773 197.884 100.935 197.937 95.095Z" fill="#203048"/>
<path d="M197.306 85.8689C196.62 89.2126 195.934 92.6388 195.2 95.9963C194.466 99.3537 193.705 102.725 192.82 105.979C192.593 106.784 192.381 107.61 192.134 108.38L191.949 108.972L191.859 109.268V109.233C191.907 109.171 191.962 109.165 191.921 109.233C191.639 109.542 191.279 109.768 190.878 109.887C190.23 110.129 189.562 110.315 188.882 110.444C185.639 110.96 182.355 111.174 179.072 111.084L178.421 114.827C179.34 115.123 180.197 115.336 181.103 115.549C182.008 115.762 182.9 115.941 183.813 116.079C185.7 116.394 187.614 116.523 189.527 116.464C190.59 116.436 191.648 116.297 192.683 116.051C193.999 115.763 195.235 115.187 196.305 114.366C197.003 113.8 197.58 113.098 197.999 112.302C198.109 112.095 198.205 111.862 198.294 111.662L198.418 111.339L198.671 110.651C199.021 109.777 199.309 108.917 199.625 108.057C200.784 104.617 201.752 101.142 202.602 97.675C203.453 94.2075 204.187 90.7468 204.797 87.1899L197.306 85.8689Z" fill="#E4897B"/>
<path d="M207.13 84.1834C208.55 88.7998 202.794 102.567 202.794 102.567L191.331 99.6771C191.331 99.6771 191.77 92.5219 194.384 86.8459C198.321 78.2872 205.428 78.645 207.13 84.1834Z" fill="#263238"/>
<path d="M179.168 111.084L173.461 110.939L176.205 116.898C176.205 116.898 178.53 117.207 180.437 114.063L182.447 111.655L180.135 111.194C179.817 111.127 179.493 111.09 179.168 111.084Z" fill="#E4897B"/>
<path d="M169.859 112.047L173.124 116.987L176.205 116.898L173.461 110.939L169.859 112.047Z" fill="#E4897B"/>
<path d="M199.007 225.058L199.268 231.092H204.31L204.049 225.058H199.007Z" fill="#CE6F64"/>
<path d="M240.154 208.787L235.935 211.56L240.737 215.619L244.949 212.853L240.154 208.787Z" fill="#CE6F64"/>
<path d="M218.154 62.2085C217.852 67.2103 217.927 70.1618 215.41 72.728C211.623 76.6015 205.456 74.3104 204.262 69.288C203.185 64.7885 203.857 57.3581 208.742 55.3629C209.82 54.9266 210.99 54.7721 212.144 54.9139C213.297 55.0556 214.396 55.489 215.337 56.1733C216.278 56.8576 217.03 57.7704 217.522 58.826C218.015 59.8817 218.232 61.0456 218.154 62.2085Z" fill="#E4897B"/>
<path d="M224.026 61.3279C222.784 65.8893 219.862 71.1456 216.082 71.4828C211.39 71.8956 209.27 67.0314 208.653 62.009C205.84 60.0757 207.315 57.9498 204.495 57.6815C200.873 57.3375 202.033 50.6914 206.8 49.625C206.8 49.625 205.202 52.6178 208.557 51.1042C211.747 49.5836 215.291 48.9674 218.805 49.3223C218.805 49.3223 214.525 51.4688 218.709 52.4252C222.894 53.3815 224.142 55.9684 222.215 57.5301C222.215 57.537 224.842 58.3282 224.026 61.3279Z" fill="#263238"/>
<path d="M211.513 63.041C211.421 64.2843 210.922 65.4622 210.093 66.3915C208.996 67.6093 207.85 66.8525 207.658 65.3733C207.48 64.0455 207.843 61.8094 209.188 61.1352C210.532 60.461 211.603 61.5411 211.513 63.041Z" fill="#E4897B"/>
<path d="M209.661 124.184C209.661 124.184 204.749 159.856 208.618 174.153C214.751 196.788 238.199 215.894 238.199 215.894L246.149 210.665C246.149 210.665 226.18 194.532 223.738 175.577C221.543 158.563 227.051 137.985 227.051 124.177L209.661 124.184Z" fill="#94A3FF"/>
<path opacity="0.1" d="M209.661 124.184C209.661 124.184 204.749 159.856 208.618 174.153C214.751 196.788 238.199 215.894 238.199 215.894L246.149 210.665C246.149 210.665 226.18 194.532 223.738 175.577C221.543 158.563 227.051 137.985 227.051 124.177L209.661 124.184Z" fill="black"/>
<path d="M207.63 144.576C208.938 143.073 210.378 141.692 211.932 140.448C211.095 152.027 210.409 169.179 211.17 181.363C210.146 179.027 209.293 176.62 208.618 174.16C206.732 167.177 206.931 155.116 207.63 144.576Z" fill="#94A3FF"/>
<path opacity="0.3" d="M207.63 144.576C208.938 143.073 210.378 141.692 211.932 140.448C211.095 152.027 210.409 169.179 211.17 181.363C210.146 179.027 209.293 176.62 208.618 174.16C206.732 167.177 206.931 155.116 207.63 144.576Z" fill="black"/>
<path d="M234.995 214.112C234.961 214.112 238.075 216.176 238.075 216.176L246.76 210.466L244.016 208.188L234.995 214.112Z" fill="#94A3FF"/>
<path opacity="0.3" d="M234.995 214.112C234.961 214.112 238.075 216.176 238.075 216.176L246.76 210.466L244.016 208.188L234.995 214.112Z" fill="black"/>
<path d="M200.098 124.184C200.098 124.184 192.511 156.451 191.976 171.869C191.372 189.151 197.388 229.922 197.388 229.922H205.929C205.929 229.922 206.979 188.835 207.356 173.094C207.774 155.928 217.817 124.184 217.817 124.184H200.098Z" fill="#94A3FF"/>
<path opacity="0.1" d="M200.098 124.184C200.098 124.184 192.511 156.451 191.976 171.869C191.372 189.151 197.388 229.922 197.388 229.922H205.929C205.929 229.922 206.979 188.835 207.356 173.094C207.774 155.928 217.817 124.184 217.817 124.184H200.098Z" fill="black"/>
<path d="M195.749 226.517C195.708 226.517 196.229 230.067 196.229 230.067H206.615L206.896 226.895L195.749 226.517Z" fill="#94A3FF"/>
<path opacity="0.3" d="M195.749 226.517C195.708 226.517 196.229 230.067 196.229 230.067H206.615L206.896 226.895L195.749 226.517Z" fill="black"/>
<path d="M68.784 93.1755C68.2009 93.7259 67.7413 94.1938 67.2611 94.7167C66.7809 95.2395 66.3281 95.7487 65.8891 96.2784C64.9973 97.3311 64.1604 98.4387 63.3509 99.5533C61.7342 101.789 60.296 104.149 59.0497 106.612L58.7959 107.114C58.6719 107.358 58.5686 107.611 58.4872 107.871C58.3215 108.375 58.22 108.897 58.1853 109.426C58.1407 110.359 58.2686 111.292 58.5626 112.178C59.0638 113.65 59.8082 115.027 60.7647 116.251C62.4885 118.471 64.5215 120.431 66.8015 122.072L68.5096 120.104C67.707 119.161 66.8701 118.15 66.1223 117.139C65.3615 116.159 64.6736 115.124 64.0643 114.043C63.4952 113.099 63.0741 112.073 62.8158 111.002C62.7271 110.618 62.7108 110.221 62.7678 109.832C62.7923 109.701 62.8338 109.574 62.8913 109.454C62.9169 109.401 62.9467 109.35 62.9805 109.302L63.2 108.931C64.523 106.767 65.9587 104.675 67.5012 102.663C68.2627 101.652 69.079 100.682 69.9022 99.7253C70.307 99.2437 70.7254 98.7759 71.1439 98.308C71.5623 97.8402 72.0151 97.3723 72.3787 97.0077L68.784 93.1755Z" fill="#E4897B"/>
<path d="M67.8512 119.526L72.9756 118.687L70.2933 123.186C70.2933 123.186 66.9937 123.069 66.0538 121.122L67.8512 119.526Z" fill="#E4897B"/>
<path d="M76.7622 120.764L74.32 124.418L70.2932 123.186L72.9755 118.687L76.7622 120.764Z" fill="#E4897B"/>
<path d="M68.098 236.961C68.4464 236.991 68.794 236.896 69.079 236.692C69.1649 236.611 69.2284 236.509 69.2632 236.395C69.2981 236.282 69.3031 236.161 69.2779 236.046C69.273 235.972 69.248 235.901 69.2057 235.84C69.1633 235.779 69.1053 235.732 69.0378 235.702C68.441 235.433 66.8769 236.438 66.6985 236.555C66.6782 236.567 66.6625 236.586 66.6538 236.609C66.6451 236.631 66.644 236.655 66.6505 236.679C66.6531 236.702 66.6632 236.724 66.6792 236.742C66.6953 236.759 66.7165 236.771 66.7397 236.775C67.184 236.888 67.6397 236.95 68.098 236.961ZM68.784 235.894C68.834 235.887 68.8849 235.887 68.9349 235.894C68.9651 235.908 68.9907 235.931 69.0089 235.959C69.0271 235.987 69.0371 236.019 69.0378 236.052C69.0559 236.129 69.0541 236.209 69.0325 236.285C69.0109 236.361 68.9702 236.43 68.9143 236.486C68.6537 236.72 67.9814 236.754 67.0827 236.575C67.5975 236.234 68.1765 236.002 68.784 235.894Z" fill="#94A3FF"/>
<path d="M66.726 236.768H66.7877C67.2748 236.486 68.2146 235.392 68.098 234.793C68.0758 234.699 68.0237 234.615 67.9495 234.553C67.8752 234.49 67.7829 234.454 67.6864 234.449C67.5938 234.436 67.4993 234.444 67.4102 234.473C67.321 234.501 67.2396 234.55 67.1719 234.615C66.6094 235.11 66.6025 236.596 66.6025 236.679C66.6038 236.699 66.6101 236.72 66.6208 236.738C66.6316 236.756 66.6465 236.771 66.6642 236.782L66.726 236.768ZM67.6041 234.704H67.6589C67.8099 234.704 67.8442 234.787 67.8579 234.848C67.9265 235.199 67.3434 236.039 66.8563 236.431C66.8443 235.854 67.0096 235.287 67.3297 234.807C67.3707 234.769 67.4195 234.74 67.4728 234.722C67.5261 234.704 67.5825 234.698 67.6384 234.704H67.6041Z" fill="#94A3FF"/>
<path d="M91.4771 236.961C91.915 237.003 92.3539 236.891 92.7188 236.644C92.801 236.571 92.8645 236.479 92.9039 236.376C92.9433 236.273 92.9575 236.162 92.9451 236.053C92.9407 235.986 92.9195 235.921 92.8835 235.864C92.8476 235.808 92.798 235.761 92.7394 235.729C92.1014 235.371 90.0571 236.417 89.8239 236.548C89.8025 236.562 89.7854 236.581 89.7745 236.604C89.7636 236.628 89.7593 236.653 89.7621 236.679C89.7661 236.703 89.7775 236.725 89.7947 236.742C89.8119 236.76 89.8341 236.771 89.8581 236.775C90.3907 236.888 90.9328 236.951 91.4771 236.961ZM92.3895 235.894C92.4679 235.889 92.5463 235.906 92.6159 235.942C92.6405 235.954 92.6613 235.973 92.6759 235.996C92.6905 236.019 92.6982 236.046 92.6982 236.073C92.7087 236.145 92.7017 236.218 92.6778 236.286C92.6539 236.355 92.6138 236.416 92.561 236.465C92.2454 236.747 91.4016 236.796 90.2629 236.603C90.9269 236.248 91.6459 236.009 92.3895 235.894Z" fill="#94A3FF"/>
<path d="M89.8787 236.768H89.9336C90.5442 236.493 91.7584 235.392 91.6623 234.794C91.6623 234.656 91.5389 234.484 91.2027 234.45C91.0799 234.436 90.9557 234.448 90.8377 234.485C90.7198 234.522 90.6105 234.582 90.5167 234.663C89.8719 235.199 89.7484 236.589 89.7484 236.651C89.7457 236.672 89.7488 236.693 89.7572 236.713C89.7657 236.732 89.7792 236.749 89.7964 236.761C89.8224 236.772 89.8513 236.775 89.8787 236.768ZM91.1067 234.704H91.1821C91.4017 234.704 91.4154 234.814 91.4222 234.842C91.4771 235.193 90.6539 236.066 90.0502 236.445C90.1098 235.857 90.3494 235.301 90.7362 234.855C90.8404 234.766 90.9702 234.713 91.1067 234.704Z" fill="#94A3FF"/>
<path d="M81.77 77.3584C81.969 80.4682 82.504 86.784 80.1236 88.5315C80.1236 88.5315 80.5558 91.717 86.1742 92.46C92.3482 93.265 89.5287 89.7699 89.5287 89.7699C86.2565 88.5178 86.6749 86.0203 87.5667 83.7362L81.77 77.3584Z" fill="#E4897B"/>
<path d="M94.5503 71.8613C94.5842 71.8614 94.6178 71.8541 94.6486 71.8398C94.6794 71.8255 94.7067 71.8047 94.7287 71.7788C94.9248 71.5454 95.1729 71.3615 95.4529 71.242C95.733 71.1225 96.0371 71.0707 96.3408 71.0908C96.3728 71.0966 96.4058 71.0959 96.4376 71.0886C96.4693 71.0813 96.4993 71.0675 96.5256 71.0482C96.5519 71.0289 96.5741 71.0044 96.5906 70.9762C96.6072 70.9481 96.6179 70.9168 96.622 70.8844C96.6298 70.8197 96.6118 70.7545 96.572 70.703C96.5322 70.6515 96.4738 70.6178 96.4093 70.6092C96.022 70.5763 95.6325 70.638 95.2741 70.789C94.9158 70.9399 94.5991 71.1757 94.3513 71.476C94.3216 71.5119 94.3026 71.5555 94.2965 71.6017C94.2904 71.648 94.2974 71.695 94.3167 71.7374C94.3361 71.7798 94.367 71.8159 94.4059 71.8414C94.4448 71.867 94.4901 71.8811 94.5366 71.882L94.5503 71.8613Z" fill="#263238"/>
<path d="M95.6203 74.9092C95.8637 75.896 96.2399 76.845 96.7385 77.73C96.5095 77.8536 96.2562 77.9251 95.9965 77.9393C95.7369 77.9536 95.4773 77.9103 95.2362 77.8125L95.6203 74.9092Z" fill="#DE5753"/>
<path d="M95.346 74.1523C95.2911 74.5651 95.4626 74.9228 95.7301 74.9641C95.9977 75.0054 96.2652 74.6889 96.3132 74.2761C96.3613 73.8633 96.1966 73.5056 95.9291 73.4712C95.6615 73.4368 95.394 73.712 95.346 74.1523Z" fill="#263238"/>
<path d="M95.8055 73.4781L96.8276 73.3198C96.8276 73.3198 96.224 74.0285 95.8055 73.4781Z" fill="#263238"/>
<path d="M84.2261 236.658H89.3711L89.7141 224.721H84.5691L84.2261 236.658Z" fill="#E4897B"/>
<path d="M60.8678 236.658H66.0128L67.666 224.721H62.521L60.8678 236.658Z" fill="#E4897B"/>
<path d="M66.3283 236.08H60.5521C60.4537 236.079 60.3582 236.114 60.2837 236.179C60.2092 236.243 60.1608 236.333 60.1474 236.431L59.4614 241.02C59.4488 241.135 59.4608 241.252 59.4965 241.363C59.5322 241.474 59.5908 241.576 59.6686 241.662C59.7463 241.749 59.8414 241.818 59.9475 241.865C60.0537 241.911 60.1686 241.935 60.2846 241.935C62.2946 241.9 63.2687 241.783 65.8069 241.783C67.371 241.783 69.6554 241.942 71.8094 241.942C73.9635 241.942 74.0801 239.802 73.1814 239.609C69.1546 238.742 68.5166 237.545 67.1652 236.396C66.9293 236.2 66.6347 236.089 66.3283 236.08Z" fill="#263238"/>
<path d="M89.5425 236.08H83.7732C83.6739 236.079 83.5776 236.114 83.502 236.178C83.4263 236.243 83.3765 236.332 83.3616 236.431L82.6756 241.02C82.663 241.135 82.675 241.252 82.7107 241.363C82.7464 241.474 82.805 241.576 82.8827 241.662C82.9605 241.749 83.0556 241.818 83.1617 241.865C83.2679 241.912 83.3828 241.935 83.4988 241.935C85.5088 241.9 86.4829 241.783 89.0211 241.783C90.5852 241.783 93.8231 241.942 95.9771 241.942C98.1312 241.942 98.2478 239.802 97.3491 239.609C93.3223 238.742 91.7377 237.545 90.3794 236.396C90.1435 236.2 89.8488 236.089 89.5425 236.08Z" fill="#263238"/>
<path d="M89.7141 224.721L89.5357 230.879H84.3907L84.5691 224.721H89.7141Z" fill="#CE6F64"/>
<path d="M62.521 224.721H67.666L66.8085 230.879H61.6704L62.521 224.721Z" fill="#CE6F64"/>
<path d="M81.7015 70.9187C81.3516 76.0237 81.0978 78.1771 83.3067 81.1149C86.6338 85.5249 92.9587 84.8438 94.8247 79.9453C96.5054 75.5352 96.7935 67.9328 92.115 65.2633C91.0858 64.6718 89.9229 64.3537 88.7367 64.3394C87.5505 64.325 86.3804 64.6149 85.3372 65.1814C84.2941 65.7479 83.4126 66.5723 82.7763 67.5764C82.14 68.5805 81.77 69.731 81.7015 70.9187Z" fill="#E4897B"/>
<path d="M78.738 75.659C75.8843 77.2552 73.7645 73.3198 73.7645 73.3198C73.7645 73.3198 78.8821 73.8771 78.4225 70.8224C77.8188 66.7701 80.7137 61.844 87.9716 62.4769C88.3763 62.5113 88.7605 62.5595 89.1378 62.6214C89.8976 62.2602 90.7568 62.167 91.5761 62.3568C92.3954 62.5466 93.1268 63.0083 93.6517 63.6672C95.7097 63.8392 98.488 66.3022 96.6015 69.5565C96.4691 69.1825 96.2639 68.8388 95.9978 68.5451C95.84 70.4509 94.1799 73.4781 92.1082 73.6776C91.6623 76.2851 93.391 79.3054 92.7942 82.0299C91.9092 85.9584 85.303 86.8459 85.303 86.8459C85.5309 86.3553 85.6157 85.8101 85.5477 85.2732C85.4797 84.7364 85.2617 84.2297 84.9189 83.8118C80.4325 85.8758 77.4758 83.86 77.4758 83.86C80.5354 82.7179 79.6093 80.6814 79.6093 80.6814C78.5529 81.1518 77.3558 81.1932 76.2696 80.7967C75.1835 80.4002 74.2929 79.5969 73.7851 78.5555C74.8014 78.6039 75.8099 78.3561 76.6888 77.8421C77.5678 77.3281 78.2795 76.5699 78.738 75.659Z" fill="#263238"/>
<path d="M90.3177 74.462C90.3057 74.9519 90.3903 75.4394 90.5669 75.8964C90.7436 76.3534 91.0086 76.7708 91.3467 77.1246C92.2522 78.0671 93.3635 77.4066 93.6654 76.2026C93.9329 75.1156 93.782 73.3199 92.6021 72.8246C92.3424 72.7222 92.0613 72.6866 91.7844 72.7209C91.5075 72.7553 91.2436 72.8585 91.0166 73.0212C90.7896 73.1839 90.6068 73.401 90.4847 73.6526C90.3626 73.9042 90.3052 74.1825 90.3177 74.462Z" fill="#E4897B"/>
<path d="M86.0439 122.023C86.0439 122.023 84.7405 155.983 81.6398 175.921C79.1428 192.034 68.0502 229.681 68.0502 229.681H61.0392C61.0392 229.681 66.8222 193.321 68.0913 177.393C71.3018 137.084 62.9669 128.429 70.8353 120.035L86.0439 122.023Z" fill="#263238"/>
<path d="M80.1855 132.763C80.1855 132.763 83.3548 132.213 85.207 138.267C84.521 149.736 83.348 164.955 81.6398 175.921C81.2625 178.364 80.6863 181.308 79.9797 184.535C81.3174 165.161 80.1855 132.763 80.1855 132.763Z" fill="#161F33"/>
<path d="M91.5112 122.739C91.5112 122.739 97.2874 160.31 96.9512 176.031C96.6013 192.385 90.6263 229.695 90.6263 229.695H83.6771C83.6771 229.695 84.7747 193.355 84.1642 177.297C83.4782 159.788 76.3506 120.764 76.3506 120.764L91.5112 122.739Z" fill="#263238"/>
<path d="M60.0238 230.012H69.3466L70.0737 226.875L60.0924 226.943L60.0238 230.012Z" fill="#94A3FF"/>
<path opacity="0.2" d="M60.0238 230.012H69.3466L70.0737 226.875L60.0924 226.943L60.0238 230.012Z" fill="black"/>
<path d="M71.1851 88.5383C68.5028 88.7998 64.428 96.4435 64.428 96.4435L71.1988 101.652C71.1988 101.652 76.8034 96.7187 76.138 93.946C75.4451 91.0633 73.7576 88.2975 71.1851 88.5383Z" fill="#94A3FF"/>
<path opacity="0.1" d="M71.1851 88.5383C68.5028 88.7998 64.428 96.4435 64.428 96.4435L71.1988 101.652C71.1988 101.652 76.8034 96.7187 76.138 93.946C75.4451 91.0633 73.7576 88.2975 71.1851 88.5383Z" fill="black"/>
<path d="M73.2088 91.8269C73.8926 91.6422 74.6005 91.5633 75.308 91.593C75.668 92.3452 75.9463 93.1341 76.138 93.946C76.824 96.698 71.1988 101.652 71.1988 101.652L70.6981 101.266L73.2088 91.8269Z" fill="#94A3FF"/>
<path opacity="0.3" d="M73.2088 91.8269C73.8926 91.6422 74.6005 91.5633 75.308 91.593C75.668 92.3452 75.9463 93.1341 76.138 93.946C76.824 96.698 71.1988 101.652 71.1988 101.652L70.6981 101.266L73.2088 91.8269Z" fill="black"/>
<path d="M93.8094 99.168C95.7645 104.128 97.8225 109.172 99.462 114.146C99.5718 114.462 99.6609 114.765 99.757 115.075L99.9902 115.838C100.054 116.063 100.054 116.301 99.9902 116.526C99.603 117.386 98.9886 118.124 98.2135 118.659C96.1624 120.135 93.9277 121.335 91.5661 122.23L92.1835 124.762C95.0887 124.377 97.8981 123.458 100.47 122.051C102.053 121.203 103.343 119.893 104.168 118.294C104.642 117.273 104.806 116.134 104.641 115.02C104.626 114.883 104.603 114.748 104.573 114.614L104.504 114.325L104.387 113.802C104.305 113.451 104.223 113.114 104.134 112.77C103.448 110.018 102.57 107.403 101.643 104.81C100.717 102.216 99.7501 99.6565 98.6594 97.104L93.8094 99.168Z" fill="#E4897B"/>
<path d="M97.9733 92.2054C97.9733 92.2054 100.292 93.3819 91.5112 122.739L70.8077 120.028C72.262 111.621 72.948 106.413 71.185 88.5383C74.1539 88.3251 77.1341 88.3251 80.103 88.5383C83.2637 88.7227 86.407 89.1366 89.5081 89.7767C93.48 90.6643 97.9733 92.2054 97.9733 92.2054Z" fill="#94A3FF"/>
<path opacity="0.1" d="M97.9733 92.2054C97.9733 92.2054 100.292 93.3819 91.5112 122.739L70.8077 120.028C72.262 111.621 72.948 106.413 71.185 88.5383C74.1539 88.3251 77.1341 88.3251 80.103 88.5383C83.2637 88.7227 86.407 89.1366 89.5081 89.7767C93.48 90.6643 97.9733 92.2054 97.9733 92.2054Z" fill="black"/>
<path d="M70.6568 118.769L69.47 120.496C69.3808 120.633 69.5318 120.799 69.765 120.833L91.4769 123.681C91.6621 123.681 91.8336 123.633 91.8611 123.516L92.2864 121.679C92.3207 121.555 92.1698 121.425 91.964 121.397L70.9998 118.645C70.9369 118.635 70.8724 118.641 70.8124 118.663C70.7524 118.684 70.6989 118.721 70.6568 118.769Z" fill="#94A3FF"/>
<path opacity="0.2" d="M70.6568 118.769L69.47 120.496C69.3808 120.633 69.5318 120.799 69.765 120.833L91.4769 123.681C91.6621 123.681 91.8336 123.633 91.8611 123.516L92.2864 121.679C92.3207 121.555 92.1698 121.425 91.964 121.397L70.9998 118.645C70.9369 118.635 70.8724 118.641 70.8124 118.663C70.7524 118.684 70.6989 118.721 70.6568 118.769Z" fill="black"/>
<path d="M73.1676 121.487L72.6051 121.411C72.4953 121.411 72.4199 121.328 72.4336 121.26L73.0098 118.879C73.0316 118.839 73.0667 118.807 73.1093 118.789C73.1518 118.772 73.1991 118.769 73.2431 118.783L73.8056 118.852C73.9222 118.852 73.9977 118.934 73.9771 119.01L73.4009 121.383C73.3871 121.459 73.2774 121.5 73.1676 121.487Z" fill="#263238"/>
<path d="M86.7779 123.248L86.2154 123.172C86.1056 123.172 86.0233 123.09 86.0439 123.021L86.6201 120.64C86.6427 120.6 86.6776 120.568 86.7196 120.55C86.7617 120.531 86.8086 120.527 86.8534 120.537L87.4159 120.613C87.5257 120.613 87.608 120.695 87.5874 120.764L87.0112 123.145C86.9975 123.248 86.8877 123.289 86.7779 123.248Z" fill="#263238"/>
<path d="M97.0063 102.168C96.437 104.823 95.6343 108.188 94.4613 112.446L94.2075 101.652L97.0063 102.168Z" fill="#94A3FF"/>
<path opacity="0.3" d="M97.0063 102.168C96.437 104.823 95.6343 108.188 94.4613 112.446L94.2075 101.652L97.0063 102.168Z" fill="black"/>
<path d="M97.9734 92.2055C100.546 93.2444 102.775 102.071 102.775 102.071L93.926 106.392C93.926 106.392 89.6522 95.5974 91.5662 93.4921C93.4801 91.3868 95.0099 91.0153 97.9734 92.2055Z" fill="#94A3FF"/>
<path opacity="0.1" d="M97.9734 92.2055C100.546 93.2444 102.775 102.071 102.775 102.071L93.926 106.392C93.926 106.392 89.6522 95.5974 91.5662 93.4921C93.4801 91.3868 95.0099 91.0153 97.9734 92.2055Z" fill="black"/>
<path d="M82.4904 230.012H91.8131L92.5403 226.875L82.1611 226.943L82.4904 230.012Z" fill="#94A3FF"/>
<path opacity="0.2" d="M82.4904 230.012H91.8131L92.5403 226.875L82.1611 226.943L82.4904 230.012Z" fill="black"/>
<path d="M91.4222 121.377L92.1699 121.067C92.3537 120.992 92.5541 120.967 92.7506 120.995C92.9471 121.023 93.1328 121.102 93.2888 121.225C93.4448 121.348 93.5657 121.51 93.639 121.695C93.7124 121.88 93.7357 122.081 93.7066 122.278L93.1646 125.862C93.1386 126.042 93.0732 126.213 92.9731 126.364C92.873 126.515 92.7407 126.642 92.5858 126.735C92.4309 126.829 92.2573 126.887 92.0774 126.905C91.8975 126.923 91.7159 126.9 91.5457 126.839C91.2736 126.74 91.0189 126.599 90.7911 126.42C90.543 126.213 90.3467 125.951 90.218 125.655C90.0893 125.359 90.0318 125.036 90.0502 124.713L90.1256 123.227C90.1387 122.826 90.2683 122.437 90.4986 122.108C90.7289 121.779 91.0499 121.525 91.4222 121.377Z" fill="#E4897B"/>
</svg>
