<svg width="64" height="65" viewBox="0 0 64 65" fill="none" xmlns="http://www.w3.org/2000/svg">
<path opacity="0.2" d="M58 24C58 40.5 32 54.5 32 54.5C32 54.5 6 40.5 6 24C6 20.4196 7.42232 16.9858 9.95406 14.4541C12.4858 11.9223 15.9196 10.5 19.5 10.5C25.1475 10.5 29.985 13.5775 32 18.5C34.015 13.5775 38.8525 10.5 44.5 10.5C48.0804 10.5 51.5142 11.9223 54.0459 14.4541C56.5777 16.9858 58 20.4196 58 24Z" fill="#A7A5AF"/>
<path d="M44.5 8.5C39.3375 8.5 34.8175 10.72 32 14.4725C29.1825 10.72 24.6625 8.5 19.5 8.5C15.3906 8.50463 11.4508 10.1392 8.54496 13.045C5.63915 15.9508 4.00463 19.8906 4 24C4 41.5 29.9475 55.665 31.0525 56.25C31.3437 56.4067 31.6693 56.4887 32 56.4887C32.3307 56.4887 32.6563 56.4067 32.9475 56.25C34.0525 55.665 60 41.5 60 24C59.9954 19.8906 58.3609 15.9508 55.455 13.045C52.5492 10.1392 48.6094 8.50463 44.5 8.5ZM32 52.2C27.435 49.54 8 37.4225 8 24C8.00397 20.9512 9.21685 18.0285 11.3727 15.8727C13.5285 13.7168 16.4512 12.504 19.5 12.5C24.3625 12.5 28.445 15.09 30.15 19.25C30.3007 19.6168 30.557 19.9306 30.8864 20.1514C31.2158 20.3722 31.6034 20.4901 32 20.4901C32.3966 20.4901 32.7842 20.3722 33.1136 20.1514C33.443 19.9306 33.6993 19.6168 33.85 19.25C35.555 15.0825 39.6375 12.5 44.5 12.5C47.5488 12.504 50.4715 13.7168 52.6273 15.8727C54.7832 18.0285 55.996 20.9512 56 24C56 37.4025 36.56 49.5375 32 52.2Z" fill="#A7A5AF"/>
</svg>
