<svg width="25" height="23" viewBox="0 0 25 23" fill="none" xmlns="http://www.w3.org/2000/svg">
<path d="M1.375 1H5.375L8.055 14.39C8.14644 14.8504 8.39691 15.264 8.76255 15.5583C9.12818 15.8526 9.5857 16.009 10.055 16H19.775C20.2443 16.009 20.7018 15.8526 21.0675 15.5583C21.4331 15.264 21.6836 14.8504 21.775 14.39L23.375 6H6.375M10.375 21C10.375 21.5523 9.92728 22 9.375 22C8.82272 22 8.375 21.5523 8.375 21C8.375 20.4477 8.82272 20 9.375 20C9.92728 20 10.375 20.4477 10.375 21ZM21.375 21C21.375 21.5523 20.9273 22 20.375 22C19.8227 22 19.375 21.5523 19.375 21C19.375 20.4477 19.8227 20 20.375 20C20.9273 20 21.375 20.4477 21.375 21Z" stroke="#938F9C" stroke-width="1.5" stroke-linecap="round" stroke-linejoin="round"/>
</svg>
