<svg width="23" height="20" viewBox="0 0 23 20" fill="none" xmlns="http://www.w3.org/2000/svg">
<path d="M20.465 2.61012C19.9542 2.09912 19.3478 1.69376 18.6804 1.4172C18.0129 1.14064 17.2975 0.998291 16.575 0.998291C15.8525 0.998291 15.1371 1.14064 14.4696 1.4172C13.8022 1.69376 13.1958 2.09912 12.685 2.61012L11.625 3.67012L10.565 2.61012C9.5333 1.57842 8.13403 0.998826 6.675 0.998826C5.21596 0.998826 3.81669 1.57842 2.785 2.61012C1.7533 3.64181 1.17371 5.04108 1.17371 6.50012C1.17371 7.95915 1.7533 9.35842 2.785 10.3901L3.845 11.4501L11.625 19.2301L19.405 11.4501L20.465 10.3901C20.976 9.87936 21.3813 9.27293 21.6579 8.60547C21.9345 7.93801 22.0768 7.2226 22.0768 6.50012C22.0768 5.77763 21.9345 5.06222 21.6579 4.39476C21.3813 3.7273 20.976 3.12087 20.465 2.61012Z" stroke="#938F9C" stroke-width="1.5" stroke-linecap="round" stroke-linejoin="round"/>
</svg>
