<svg width="20" height="22" viewBox="0 0 20 22" fill="none" xmlns="http://www.w3.org/2000/svg">
<path fill-rule="evenodd" clip-rule="evenodd" d="M4.66691 6.24515C3.00833 7.72962 2 9.65598 2 12C2 16.4182 5.58172 20 10 20C14.4183 20 18 16.4182 18 12C18 9.65598 16.9917 7.72962 15.3331 6.24515L16.6669 4.75488C18.6908 6.56634 20 9.01295 20 12C20 17.5228 15.5228 22 10 22C4.47715 22 0 17.5228 0 12C0 9.01295 1.30917 6.56634 3.33309 4.75488L4.66691 6.24515Z" fill="#DE1135"/>
<path fill-rule="evenodd" clip-rule="evenodd" d="M9.9998 0L13.7069 3.7074L12.2927 5.12156L10.9998 3.8286L10.9998 11.4143H8.9998L8.9998 3.8286L7.70693 5.12156L6.29266 3.7074L9.9998 0Z" fill="#DE1135"/>
</svg>
