<svg width="22" height="22" viewBox="0 0 22 22" fill="none" xmlns="http://www.w3.org/2000/svg">
<path d="M20.5 15L20.989 15.5687C21.2614 15.3344 21.3294 14.9399 21.1512 14.6279L20.5 15ZM1.5 15L0.848818 14.6279C0.670557 14.9399 0.738577 15.3344 1.011 15.5687L1.5 15ZM18.5 11.5H17.75V11.6992L17.8488 11.8721L18.5 11.5ZM3.5 11.5L4.15118 11.8721L4.25 11.6992V11.5H3.5ZM11 18.75C15.0514 18.75 18.7088 17.5294 20.989 15.5687L20.011 14.4313C18.0683 16.1018 14.7895 17.25 11 17.25V18.75ZM1.011 15.5687C3.29125 17.5294 6.94862 18.75 11 18.75V17.25C7.21053 17.25 3.93165 16.1018 1.989 14.4313L1.011 15.5687ZM21.1512 14.6279L19.1512 11.1279L17.8488 11.8721L19.8488 15.3721L21.1512 14.6279ZM19.25 11.5V8.5H17.75V11.5H19.25ZM2.75 8.5V11.5H4.25V8.5H2.75ZM2.84882 11.1279L0.848818 14.6279L2.15118 15.3721L4.15118 11.8721L2.84882 11.1279ZM11 0.25C6.44365 0.25 2.75 3.94365 2.75 8.5H4.25C4.25 4.77208 7.27208 1.75 11 1.75V0.25ZM19.25 8.5C19.25 3.94365 15.5563 0.25 11 0.25V1.75C14.7279 1.75 17.75 4.77208 17.75 8.5H19.25ZM6.25 17C6.25 19.6234 8.37665 21.75 11 21.75V20.25C9.20507 20.25 7.75 18.7949 7.75 17H6.25ZM11 21.75C13.6234 21.75 15.75 19.6234 15.75 17H14.25C14.25 18.7949 12.7949 20.25 11 20.25V21.75Z" fill="#323135"/>
</svg>
